simulation
nRows=25
nColumns=15
endheader
time  TH_x TH_y TH_z SC_y  SC_z  SC_x  AC_y  AC_z  AC_x  GH_y  GH_z  GH_yy  EL_x  PS_y
0.770000  0.000000  0.000000  0.000000  -31.054668  -0.366244  6.852178  54.778848  4.359921  -8.056087  27.932165  22.921699  -14.777477  20.718621  0.000000
0.780000  0.000000  0.000000  0.000000  -31.072784  -0.305555  6.956807  54.782324  4.587338  -7.983077  27.769240  23.456191  -14.841242  20.680974  0.000000
0.790000  0.000000  0.000000  0.000000  -31.091238  -0.244284  7.061722  54.785341  4.817558  -7.909257  27.608606  23.990279  -14.906156  20.643243  0.000000
0.800000  0.000000  0.000000  0.000000  -31.110022  -0.182475  7.166840  54.787918  5.050447  -7.834660  27.450256  24.523799  -14.972186  20.605440  0.000000
0.810000  0.000000  0.000000  0.000000  -31.129127  -0.120172  7.272082  54.790071  5.285876  -7.759320  27.294183  25.056586  -15.039299  20.567575  0.000000
0.820000  0.000000  0.000000  0.000000  -31.148544  -0.057419  7.377365  54.791816  5.523716  -7.683267  27.140382  25.588479  -15.107464  20.529661  0.000000
0.830000  0.000000  0.000000  0.000000  -31.168262  0.005743  7.482611  54.793171  5.763838  -7.606536  26.988846  26.119318  -15.176649  20.491709  0.000000
0.840000  0.000000  0.000000  0.000000  -31.188273  0.069269  7.587743  54.794150  6.006115  -7.529157  26.839568  26.648944  -15.246821  20.453731  0.000000
0.850000  0.000000  0.000000  0.000000  -31.208569  0.133120  7.692682  54.794770  6.250421  -7.451163  26.692541  27.177202  -15.317949  20.415736  0.000000
0.860000  0.000000  0.000000  0.000000  -31.229139  0.197252  7.797353  54.795047  6.496633  -7.372585  26.547759  27.703936  -15.390002  20.377738  0.000000
0.870000  0.000000  0.000000  0.000000  -31.249975  0.261626  7.901682  54.794996  6.744626  -7.293453  26.405216  28.228994  -15.462949  20.339746  0.000000
0.880000  0.000000  0.000000  0.000000  -31.271067  0.326200  8.005594  54.794633  6.994280  -7.213799  26.264903  28.752223  -15.536758  20.301771  0.000000
0.890000  0.000000  0.000000  0.000000  -31.292408  0.390936  8.109017  54.793973  7.245472  -7.133654  26.126814  29.273475  -15.611400  20.263825  0.000000
0.900000  0.000000  0.000000  0.000000  -31.313987  0.455794  8.211879  54.793030  7.498084  -7.053047  25.990943  29.792602  -15.686842  20.225918  0.000000
0.910000  0.000000  0.000000  0.000000  -31.335797  0.520734  8.314110  54.791820  7.751997  -6.972008  25.857282  30.309458  -15.763054  20.188061  0.000000
0.920000  0.000000  0.000000  0.000000  -31.357827  0.585719  8.415640  54.790357  8.007094  -6.890568  25.725824  30.823898  -15.840008  20.150264  0.000000
0.930000  0.000000  0.000000  0.000000  -31.380070  0.650710  8.516402  54.788656  8.263260  -6.808756  25.596562  31.335779  -15.917671  20.112537  0.000000
0.940000  0.000000  0.000000  0.000000  -31.402517  0.715671  8.616327  54.786730  8.520379  -6.726600  25.469488  31.844961  -15.996016  20.074891  0.000000
0.950000  0.000000  0.000000  0.000000  -31.425158  0.780565  8.715350  54.784593  8.778339  -6.644130  25.344596  32.351306  -16.075011  20.037336  0.000000
0.960000  0.000000  0.000000  0.000000  -31.447985  0.845354  8.813406  54.782260  9.037027  -6.561375  25.221878  32.854674  -16.154627  19.999882  0.000000
0.970000  0.000000  0.000000  0.000000  -31.470990  0.910004  8.910430  54.779743  9.296332  -6.478363  25.101327  33.354931  -16.234836  19.962539  0.000000
0.980000  0.000000  0.000000  0.000000  -31.494163  0.974480  9.006359  54.777056  9.556145  -6.395121  24.982935  33.851943  -16.315608  19.925317  0.000000
0.990000  0.000000  0.000000  0.000000  -31.517497  1.038746  9.101133  54.774213  9.816358  -6.311678  24.866695  34.345578  -16.396914  19.888226  0.000000
1.000000  0.000000  0.000000  0.000000  -31.540982  1.102768  9.194690  54.771225  10.076862  -6.228062  24.752599  34.835705  -16.478726  19.851275  0.000000
1.010000  0.000000  0.000000  0.000000  -31.564610  1.166512  9.286970  54.768106  10.337553  -6.144298  24.640639  35.322196  -16.561015  19.814474  0.000000
